<svg xmlns="http://www.w3.org/2000/svg" data-name="Layer 1" viewBox="0 0 128 160" x="0px" y="0px"><title>Artboard 11</title><polygon points="77.29 32 50.71 32 45.91 44 82.09 44 77.29 32"/><rect x="44" y="52" width="40" height="8"/><path d="M64,0A52,52,0,0,0,46,100.8l14.68,25.27a4,4,0,0,0,6.64,0L82,100.8A52,52,0,0,0,64,0ZM92,68H84v4a4,4,0,0,1-8,0V68H52v4a4,4,0,0,1-8,0V68H36V48a4,4,0,0,1,.07-.7l0-.16a4,4,0,0,1,.18-.61l0-.07h0l8-19.93A4,4,0,0,1,48,24H80a4,4,0,0,1,3.71,2.51l8,19.93h0l0,.07a4,4,0,0,1,.18.61l0,.16A4,4,0,0,1,92,48V68Z"/><text x="0" y="143" fill="#000000" font-size="5px" font-weight="bold" font-family="'Helvetica Neue', Helvetica, Arial-Unicode, Arial, Sans-serif">Created by Juraj Sedlák</text><text x="0" y="148" fill="#000000" font-size="5px" font-weight="bold" font-family="'Helvetica Neue', Helvetica, Arial-Unicode, Arial, Sans-serif">from the Noun Project</text></svg>