<svg xmlns="http://www.w3.org/2000/svg" xmlns:xlink="http://www.w3.org/1999/xlink" version="1.1" x="0px" y="0px" viewBox="0 0 100 125" enable-background="new 0 0 100 100" xml:space="preserve"><g><path d="M52.9,33.1l3.8,6.8c3.2-0.1,6.9,0.1,10.8,0L63.6,33C59.8,33.2,56.1,33,52.9,33.1z"/><path d="M35.9,41.4l3.8,6.8c2.3-2.2,4.9-4.4,7.5-5.9l-3.8-6.8C40.8,37.1,38.2,39.3,35.9,41.4z"/><path d="M63.6,33c3.4-0.1,6.8-0.5,10-1.5l-3.8-6.8c-3.2,1-6.6,1.4-10,1.5L63.6,33z"/><path d="M44.7,26.6c-1.6,0.3-3.3,1.1-5.1,2.1l3.8,6.8c1.7-1,3.4-1.8,5.1-2.1c1.3-0.2,2.8-0.3,4.4-0.4l-3.8-6.8   C47.5,26.3,46,26.3,44.7,26.6z"/><path d="M35.9,21.8c-2.6,1.4-5.3,3.5-7.6,5.7l3.9,7c2.3-2.2,4.9-4.4,7.5-5.9L35.9,21.8z"/><path d="M59.9,26.2l-3.5-6.4c-3.8,0.2-7.5,0-10.8,0l3.5,6.4C52.3,26.2,56,26.3,59.9,26.2z"/><path d="M71.3,4.6l-1,1.2c-4.2,4.9-8.2,5.9-13.3,5.9c-2,0-4.1-0.2-6.4-0.3c-2.1-0.2-4.2-0.3-6.5-0.4c-6.5-0.2-13.5,3.3-20.9,10.2   c-2.1,1.9-4.1,4.1-6,6.4l-0.5,0.6l19.7,35.8l1-1.4c3.1-4.3,13-15.4,20.5-15.4l0.2,0c2,0.1,4.1,0.2,6,0.3c2.3,0.2,4.7,0.3,7,0.3   c0,0,0,0,0,0c5.5,0,9.7-1,13.6-3.1c2-1.1,3.8-2.5,5.6-4.2l0.6-0.6L71.3,4.6z M83.6,43c-1,0.5-1.9,1-3,1.3l-3.2-5.9   c-3.2,1-6.6,1.4-10,1.5l3.2,5.9c-2.2,0-4.3-0.2-6.5-0.3c-1.5-0.1-3.1-0.2-4.7-0.3l-2.9-5.3c-1.6,0-3.1,0.1-4.4,0.4   c-1.6,0.3-3.3,1.1-5.1,2.1l2.9,5.3c-2.7,1.6-5.3,3.8-7.5,5.9l-2.9-5.3c-2.5,2.4-4.6,4.7-6,6.3l-3.8-6.8c1.4-1.6,3.5-4,6-6.3   l-3.8-6.8c-2.5,2.4-4.6,4.7-6,6.3l-3.9-7.1c1.5-1.7,3.6-4,6.1-6.2l-2.9-5.2c2.6-2.4,5.2-4.3,7.6-5.8l2.9,5.3   c1.4-0.8,2.9-1.4,4.2-1.6c1.5-0.3,3.4-0.4,5.4-0.4L42,13.4c0.7-0.1,1.3-0.1,1.9-0.1c2.2,0.1,4.4,0.2,6.4,0.4   c0.9,0.1,1.8,0.1,2.7,0.2l3.3,5.9c3.3-0.2,6.7-0.6,9.8-1.7l-2.7-4.9c2.5-0.8,5-2.2,7.4-4.7l2.7,4.8c-2.1,2.3-4.6,3.8-7.4,4.7   l3.7,6.7c2.8-0.9,5.4-2.2,7.6-4.4l3.8,6.8c-2.2,2.1-4.8,3.5-7.6,4.4l3.8,6.8c2.8-0.9,5.4-2.2,7.6-4.3l3.1,5.7   C86.7,41,85.1,42.1,83.6,43z"/><path d="M13.4,27.2c-0.5-0.9-1.6-1.2-2.5-0.7c-0.9,0.5-1.2,1.6-0.7,2.5l35.7,64.8c0.5,0.9,1.6,1.2,2.5,0.7c0.9-0.5,1.2-1.6,0.7-2.5   L13.4,27.2z"/></g><text x="0" y="115" fill="#000000" font-size="5px" font-weight="bold" font-family="'Helvetica Neue', Helvetica, Arial-Unicode, Arial, Sans-serif">Created by parkjisun</text><text x="0" y="120" fill="#000000" font-size="5px" font-weight="bold" font-family="'Helvetica Neue', Helvetica, Arial-Unicode, Arial, Sans-serif">from the Noun Project</text></svg>